<?xml version="1.0" standalone="no"?>
<!DOCTYPE svg PUBLIC "-//W3C//DTD SVG 20010904//EN"
 "http://www.w3.org/TR/2001/REC-SVG-20010904/DTD/svg10.dtd">
<svg version="1.0" xmlns="http://www.w3.org/2000/svg"
 width="2340.000000pt" height="2340.000000pt" viewBox="0 0 2340.000000 2340.000000"
 preserveAspectRatio="xMidYMid meet">
<metadata>
Created by potrace 1.14, written by Peter Selinger 2001-2017
</metadata>
<g transform="translate(0.000000,2340.000000) scale(0.100000,-0.100000)"
fill="#000000" stroke="none">
<path d="M7308 13935 c-4 -4 -138 -14 -293 -20 -71 -3 -159 -8 -195 -10 -36
-2 -121 -7 -190 -10 -69 -3 -159 -8 -200 -10 -41 -3 -122 -7 -180 -10 -117 -6
-262 -13 -390 -20 -47 -3 -177 -10 -290 -15 -360 -18 -378 -20 -439 -56 -44
-26 -68 -83 -96 -229 -51 -277 -58 -383 -34 -523 25 -145 32 -164 149 -427
118 -267 184 -422 362 -855 71 -173 153 -373 183 -445 29 -71 101 -249 158
-395 123 -309 177 -429 248 -546 281 -466 773 -750 1480 -853 196 -29 313 -36
594 -35 216 0 337 7 545 30 180 19 425 75 596 135 125 43 337 147 441 215 245
159 438 352 600 597 150 227 239 440 368 876 96 328 140 456 210 617 233 536
450 764 745 781 288 17 512 -176 735 -632 96 -196 154 -345 220 -571 30 -101
79 -266 109 -367 64 -214 108 -331 183 -481 167 -336 430 -627 744 -821 438
-271 963 -403 1549 -390 113 3 219 7 235 9 17 3 73 7 125 11 901 56 1516 423
1869 1115 85 165 115 243 249 645 169 506 307 846 505 1240 152 305 193 447
204 711 6 159 -8 364 -32 455 -8 27 -26 66 -40 85 -52 68 -107 87 -280 99 -77
5 -274 22 -460 40 -27 2 -147 7 -265 10 -118 4 -233 8 -255 11 -76 8 -1531 11
-1725 4 -441 -18 -508 -21 -575 -25 -38 -3 -144 -10 -235 -15 -521 -33 -1116
-101 -1635 -185 -181 -29 -339 -50 -500 -65 -66 -6 -138 -13 -160 -16 -22 -3
-218 -7 -435 -9 -525 -5 -559 -2 -1540 126 -74 10 -368 46 -610 75 -176 21
-562 61 -710 74 -69 6 -147 12 -175 15 -44 4 -159 12 -405 30 -36 2 -132 7
-215 10 -82 3 -186 8 -230 11 -90 7 -611 14 -617 9z m8137 -339 c457 -15 944
-112 1275 -256 408 -176 635 -468 706 -910 9 -52 14 -109 12 -127 -2 -17 0
-29 4 -27 8 5 12 -115 10 -276 -2 -137 -14 -320 -21 -316 -3 2 -7 -27 -8 -64
-3 -78 -60 -373 -74 -378 -5 -2 -7 -8 -4 -12 9 -15 -16 -100 -28 -93 -6 3 -7
1 -3 -5 10 -16 -14 -103 -27 -95 -6 3 -7 1 -3 -5 7 -11 -32 -130 -73 -225 -11
-26 -21 -51 -22 -55 -1 -4 -22 -47 -48 -97 -65 -124 -132 -226 -144 -218 -6 3
-7 1 -3 -5 16 -26 -187 -231 -314 -318 -96 -66 -227 -137 -239 -130 -5 4 -11
2 -13 -4 -3 -11 -308 -117 -428 -149 -262 -69 -466 -95 -770 -95 -399 0 -738
59 -1059 184 -384 150 -699 411 -889 737 -264 451 -453 1127 -455 1623 -2 270
62 474 201 650 120 151 270 252 522 353 382 153 821 259 1206 292 38 4 75 8
81 10 7 2 99 7 205 11 106 4 195 8 196 10 2 1 9 1 15 -1 7 -2 93 -6 192 -9z
m-6874 -6 c145 -9 180 -12 358 -36 523 -70 1031 -264 1350 -517 130 -104 236
-269 283 -442 18 -69 21 -107 21 -280 0 -517 -106 -981 -323 -1417 -139 -277
-249 -438 -414 -603 -266 -266 -562 -411 -1011 -494 -205 -38 -354 -48 -505
-35 -74 7 -162 15 -195 18 -33 3 -112 10 -175 16 -284 25 -433 39 -535 50
-133 15 -342 83 -503 164 -243 123 -473 343 -616 592 -91 157 -149 312 -216
569 -126 487 -151 897 -79 1305 72 411 266 662 650 844 319 151 712 238 1204
265 169 10 545 10 706 1z"/>
<path d="M14968 13364 c-3 -2 -54 -7 -114 -10 -60 -3 -118 -7 -129 -9 -11 -1
-49 -6 -85 -10 -36 -5 -76 -9 -90 -10 -14 -2 -27 -4 -30 -5 -6 -4 -14 -5 -83
-14 -31 -5 -60 -12 -63 -17 -3 -5 -10 -7 -15 -3 -5 3 -24 1 -42 -5 -42 -13
-88 -23 -109 -23 -10 1 -18 -3 -18 -8 0 -4 -8 -7 -17 -5 -10 1 -22 -1 -28 -5
-14 -9 -138 -45 -147 -42 -5 1 -8 -2 -8 -6 0 -5 -18 -14 -40 -21 -23 -7 -61
-21 -85 -31 -25 -11 -46 -19 -48 -19 -1 0 -27 -12 -57 -27 -30 -16 -59 -29
-63 -29 -4 0 -11 -6 -16 -13 -5 -8 -12 -14 -17 -13 -20 1 -54 -12 -54 -20 0
-5 -7 -9 -15 -9 -8 0 -15 -4 -15 -8 0 -5 -18 -17 -40 -27 -22 -10 -40 -21 -40
-25 0 -4 -12 -12 -27 -19 -34 -16 -38 -19 -139 -120 -45 -44 -87 -94 -94 -111
-7 -16 -16 -30 -21 -30 -5 0 -9 -9 -9 -19 0 -11 -7 -27 -16 -35 -8 -9 -12 -16
-8 -16 3 0 1 -7 -6 -15 -6 -8 -13 -24 -16 -37 -2 -13 -10 -52 -18 -87 -8 -35
-17 -95 -19 -132 -8 -100 14 -403 39 -554 3 -22 15 -46 25 -53 11 -7 19 -21
19 -30 0 -15 2 -15 10 -2 8 13 10 12 10 -3 0 -10 4 -16 9 -12 5 3 16 -4 24
-15 7 -11 17 -17 20 -13 4 3 7 1 7 -5 0 -7 7 -12 15 -12 8 0 15 -4 15 -10 0
-5 7 -10 15 -10 8 0 15 -6 15 -14 0 -9 7 -12 20 -9 14 4 20 0 20 -11 0 -14 11
-21 33 -17 4 0 7 -5 7 -12 0 -7 10 -14 22 -14 13 -1 24 -7 26 -12 2 -5 19 -15
38 -21 19 -6 32 -15 30 -19 -3 -4 5 -8 17 -8 12 -1 23 -7 25 -13 2 -5 10 -10
18 -10 8 0 14 -4 14 -10 0 -5 7 -7 15 -4 8 4 17 -1 21 -9 3 -9 11 -14 19 -11
7 3 20 -2 29 -11 9 -9 16 -14 16 -10 0 3 13 -1 29 -9 16 -9 31 -12 35 -9 3 4
6 1 6 -5 0 -7 3 -11 8 -10 4 1 21 -4 37 -11 17 -7 35 -14 40 -16 6 -1 21 -7
35 -12 14 -6 28 -9 33 -6 4 2 7 0 7 -5 0 -5 6 -9 13 -10 28 -2 46 -9 63 -22
11 -9 15 -10 10 -2 -9 15 6 16 22 0 6 -6 21 -13 32 -15 32 -5 65 -11 70 -13 3
-1 9 -2 14 -1 4 1 14 -4 22 -10 8 -7 17 -9 21 -6 3 4 15 1 27 -5 22 -12 28
-14 89 -16 21 -1 36 -6 33 -10 -3 -5 10 -8 29 -7 19 0 35 -2 35 -6 0 -3 11 -5
25 -4 14 2 25 0 25 -3 0 -4 24 -8 53 -10 28 -2 66 -4 82 -5 17 -1 33 -6 38
-12 4 -6 11 -4 17 5 5 8 10 10 10 4 0 -7 17 -12 38 -12 20 -1 66 -3 102 -6 46
-4 60 -2 48 5 -10 5 -20 9 -23 9 -14 -2 -81 41 -119 77 -13 12 -27 19 -30 16
-3 -4 -6 1 -6 10 0 8 -9 19 -20 22 -11 3 -20 10 -20 14 0 5 -10 19 -23 32 -49
52 -131 216 -126 252 1 6 -1 20 -5 29 -4 9 -5 70 -3 135 7 138 7 143 20 143 6
0 8 3 4 6 -6 6 12 65 22 74 8 7 39 73 37 81 0 3 14 20 31 38 18 18 36 38 40
44 5 7 25 26 45 44 20 17 34 34 31 37 -4 3 2 6 13 6 11 0 26 9 34 19 7 11 17
18 22 15 4 -3 8 0 8 5 0 6 3 10 8 9 4 -1 21 6 37 16 17 9 21 14 10 11 -11 -4
-42 -9 -70 -10 -83 -6 -200 -20 -200 -25 0 -1 -13 -3 -30 -5 -16 -1 -30 -3
-30 -5 0 -1 -13 -3 -30 -5 -16 -1 -32 -4 -35 -5 -3 -1 -9 -2 -14 -1 -5 1 -16
-1 -25 -5 -9 -4 -23 -8 -31 -9 -8 -1 -23 -5 -32 -9 -9 -4 -22 -5 -28 -1 -5 3
-10 1 -10 -5 0 -6 -4 -8 -10 -5 -5 3 -16 3 -22 -2 -7 -4 -24 -9 -38 -11 -13
-2 -30 -8 -37 -14 -7 -6 -13 -8 -13 -4 0 3 -16 0 -35 -8 -19 -8 -35 -12 -35
-9 0 3 -6 1 -12 -4 -7 -6 -26 -14 -43 -18 -43 -12 -47 -13 -142 -56 -34 -15
-64 -25 -67 -21 -3 3 -6 -1 -6 -8 0 -7 -3 -10 -6 -7 -4 4 -19 -2 -33 -12 -14
-9 -41 -23 -58 -30 -18 -8 -33 -17 -33 -22 0 -5 -8 -9 -19 -9 -10 0 -24 -7
-31 -15 -7 -8 -17 -15 -22 -15 -5 0 -24 -11 -42 -25 -18 -14 -36 -22 -39 -18
-4 3 -7 2 -7 -4 0 -6 -18 -22 -41 -37 -22 -15 -48 -36 -57 -46 -9 -11 -22 -20
-29 -20 -13 0 2 20 87 114 84 92 100 107 112 100 7 -4 8 -3 4 4 -4 7 -2 12 4
12 6 0 8 5 4 12 -4 7 -3 8 4 4 6 -4 17 2 24 14 7 11 17 20 22 20 5 0 18 10 30
23 12 13 29 26 39 30 9 3 17 11 17 17 0 5 7 10 15 10 7 0 19 8 24 18 6 9 11
14 11 10 0 -4 9 0 20 10 12 9 23 16 25 15 3 -1 16 9 31 22 15 14 30 22 35 20
4 -3 11 0 16 8 10 16 253 140 253 130 0 -5 4 -3 8 4 4 6 16 13 27 15 11 1 22
5 25 8 10 10 125 45 137 42 7 -2 13 1 13 6 0 9 48 23 91 27 9 1 22 6 29 10 12
8 55 16 93 18 9 1 17 4 17 7 0 3 21 6 47 8 26 2 50 7 53 12 3 5 12 5 19 1 14
-9 51 -3 51 8 0 10 74 7 82 -4 4 -5 10 -2 13 8 5 13 11 14 25 7 12 -6 21 -7
25 0 3 5 13 6 22 3 12 -5 14 -3 8 7 -5 9 -4 11 4 6 19 -12 61 -14 61 -4 0 5 5
6 12 2 6 -4 33 -6 61 -5 28 1 56 -4 65 -11 9 -8 13 -8 9 -2 -4 7 2 14 13 17
11 3 20 2 20 -1 0 -4 27 -7 61 -7 33 0 62 -2 64 -6 3 -3 30 -7 61 -8 31 -1 61
-4 67 -8 5 -3 33 -7 61 -9 28 -2 58 -7 66 -10 8 -4 26 -8 40 -10 61 -7 140
-28 140 -36 0 -5 5 -6 10 -3 11 7 96 -18 141 -41 14 -7 29 -11 32 -8 3 3 17
-2 31 -11 14 -9 26 -16 28 -15 2 1 17 -4 33 -11 17 -7 33 -12 38 -11 4 1 7 -3
7 -9 0 -5 5 -7 10 -4 6 3 10 2 10 -3 0 -5 13 -12 29 -15 16 -3 36 -13 44 -22
9 -8 23 -15 31 -15 9 0 16 -5 16 -11 0 -5 4 -8 9 -5 5 3 14 -1 21 -9 7 -8 17
-15 22 -15 5 0 16 -7 25 -15 8 -8 19 -13 24 -10 5 4 9 1 9 -4 0 -6 4 -11 10
-11 9 0 35 -19 65 -47 8 -7 21 -13 31 -13 10 0 14 -3 11 -6 -4 -4 14 -20 39
-37 25 -16 48 -36 51 -44 3 -7 10 -13 17 -13 12 0 196 -173 196 -184 0 -4 11
-17 25 -30 14 -13 25 -28 25 -35 0 -6 3 -11 8 -11 4 0 13 -9 20 -21 10 -15 2
-12 -27 12 -23 18 -41 35 -41 39 0 4 -12 13 -27 21 -16 7 -44 25 -63 39 -19
14 -47 32 -62 39 -16 8 -28 18 -28 23 0 5 -4 6 -10 3 -5 -3 -10 -1 -10 4 0 6
-3 10 -7 9 -9 -2 -85 34 -93 43 -3 3 -22 12 -42 20 -21 7 -38 17 -38 22 0 4
-4 5 -10 2 -5 -3 -10 -2 -10 4 0 6 -7 8 -15 5 -8 -4 -15 -1 -15 7 0 7 -3 9 -7
6 -3 -4 -12 -2 -19 3 -6 6 -22 13 -35 15 -12 3 -26 10 -29 16 -4 6 -10 10 -14
9 -4 -1 -17 1 -29 5 -12 4 -25 7 -29 6 -4 0 -28 8 -54 19 -26 11 -49 18 -52
15 -3 -3 -10 -1 -16 4 -6 6 -23 11 -36 13 -14 2 -29 6 -35 10 -5 3 -26 9 -45
12 -33 5 -76 14 -110 21 -8 2 -15 4 -15 5 0 1 -11 4 -25 6 -76 10 -95 13 -95
14 0 3 -82 13 -117 13 -21 1 -38 4 -38 7 0 4 -25 6 -56 6 -31 -1 -58 2 -60 6
-6 9 -92 4 -101 -7 -5 -4 -3 -5 4 -1 6 3 14 2 18 -4 4 -6 10 -8 15 -5 4 3 13
-2 20 -10 7 -8 18 -15 26 -15 7 0 17 -8 23 -17 5 -10 12 -15 16 -12 8 8 145
-131 145 -147 0 -6 7 -15 16 -18 8 -3 13 -10 10 -15 -4 -5 -3 -11 1 -13 11 -4
53 -92 53 -110 0 -8 3 -18 7 -22 14 -14 18 -55 18 -189 0 -83 -4 -141 -10
-145 -6 -4 -10 -17 -9 -30 1 -12 -3 -25 -8 -28 -4 -3 -6 -10 -3 -15 4 -5 -1
-12 -9 -15 -9 -3 -16 -14 -16 -24 0 -10 -7 -25 -15 -34 -8 -8 -15 -18 -15 -23
0 -4 -10 -20 -23 -35 -12 -14 -29 -35 -37 -45 -9 -10 -37 -36 -64 -58 -26 -22
-54 -46 -61 -52 -8 -7 -16 -13 -18 -13 -3 0 -25 -12 -48 -26 -25 -15 -34 -24
-21 -21 12 3 22 0 22 -5 0 -7 4 -7 13 -1 6 5 29 9 50 7 20 -1 35 1 33 5 -3 4
20 6 50 4 37 -1 53 1 48 8 -4 7 1 7 15 0 11 -7 21 -8 21 -3 0 4 22 8 49 8 27
-1 47 2 45 6 -3 5 2 8 10 8 9 0 16 -6 16 -12 0 -10 3 -9 9 1 5 7 13 11 19 7 6
-3 17 1 26 9 9 10 17 11 21 5 4 -6 12 -7 18 -3 6 4 25 8 42 9 16 1 41 6 55 12
14 5 28 8 33 5 4 -2 7 2 7 9 0 9 3 9 10 -2 6 -9 10 -10 10 -3 0 6 9 10 20 8
11 -2 22 0 25 5 3 5 14 7 25 5 11 -2 20 -1 20 3 0 4 12 9 27 10 15 1 29 6 32
10 3 4 16 7 29 6 12 -1 22 2 22 6 0 4 6 7 13 7 6 0 39 9 72 19 33 10 63 17 68
16 4 -1 7 2 7 7 0 8 56 25 73 22 4 0 7 4 7 10 0 5 4 8 9 4 5 -3 12 -1 16 5 4
6 10 8 15 5 4 -3 13 2 20 10 7 8 21 15 31 15 10 0 34 9 54 20 20 11 42 20 50
20 8 0 15 5 15 10 0 6 9 10 20 10 11 0 20 3 20 8 0 4 9 13 21 20 17 11 20 11
13 0 -4 -7 2 -4 14 6 12 11 22 15 22 10 0 -5 5 -2 10 6 5 8 14 15 20 15 6 0
15 7 20 15 5 8 10 11 10 6 0 -5 7 -3 15 4 8 7 15 9 15 4 0 -5 7 2 16 14 8 12
19 20 23 17 5 -2 16 4 26 15 10 11 24 20 32 20 7 0 13 5 13 10 0 6 7 10 15 10
8 0 15 4 15 9 0 5 9 13 20 16 11 4 18 10 15 15 -5 7 10 17 28 18 5 0 17 11 28
23 10 12 19 18 19 12 0 -5 -10 -20 -22 -33 -13 -14 -22 -28 -20 -33 1 -5 -1
-6 -5 -4 -5 3 -14 -1 -21 -9 -7 -8 -10 -14 -6 -14 4 0 -2 -9 -14 -20 -12 -12
-22 -26 -22 -32 0 -6 -3 -8 -7 -5 -3 4 -15 -5 -25 -20 -10 -16 -18 -24 -18
-19 0 5 -9 -1 -20 -14 -11 -13 -20 -27 -20 -32 0 -5 -4 -6 -10 -3 -5 3 -10 1
-10 -5 0 -6 -5 -8 -10 -5 -6 4 -9 2 -8 -3 3 -11 -40 -52 -54 -52 -5 0 -7 -4
-4 -9 3 -5 -4 -11 -15 -14 -14 -4 -18 -10 -13 -19 4 -7 4 -10 -1 -6 -11 10
-47 -11 -40 -23 4 -5 -1 -9 -9 -9 -8 0 -22 -8 -32 -17 -10 -10 -20 -18 -24
-18 -4 0 -14 -7 -23 -15 -35 -32 -45 -39 -51 -33 -3 4 -6 2 -6 -4 0 -5 -20
-20 -45 -32 -25 -12 -45 -27 -45 -32 0 -6 -4 -7 -10 -4 -5 3 -10 1 -10 -4 0
-6 -9 -11 -20 -11 -11 0 -20 -4 -20 -9 0 -10 -39 -27 -53 -23 -4 1 -6 -3 -5
-9 2 -6 -5 -13 -15 -14 -10 -2 -25 -12 -34 -22 -8 -10 -12 -12 -8 -5 9 17 -3
15 -22 -3 -8 -8 -19 -13 -24 -10 -5 4 -9 1 -9 -6 0 -6 -8 -9 -20 -6 -11 3 -18
2 -15 -3 7 -11 -52 -33 -66 -24 -8 4 -10 3 -5 -4 6 -11 -6 -16 -26 -13 -5 0
-8 -4 -8 -10 0 -5 -4 -7 -10 -4 -5 3 -10 2 -10 -2 0 -5 -12 -10 -27 -11 -15
-1 -30 -7 -34 -13 -4 -7 -11 -9 -17 -5 -6 3 -13 0 -15 -6 -4 -9 -6 -9 -6 1 -1
11 -5 10 -17 -5 -8 -10 -12 -12 -8 -4 6 13 5 13 -12 -1 -10 -8 -28 -15 -39
-15 -11 1 -22 -2 -25 -6 -3 -4 -17 -8 -30 -10 -14 -2 -31 -7 -37 -11 -7 -5
-13 -5 -13 0 0 4 -5 1 -10 -7 -9 -13 -10 -13 -10 0 -1 12 -3 11 -14 -3 -9 -12
-16 -14 -21 -8 -3 6 -11 11 -16 11 -6 0 -7 -4 -4 -10 3 -6 -1 -7 -9 -4 -9 3
-16 2 -16 -4 0 -6 -9 -8 -21 -5 -12 4 -25 0 -30 -8 -7 -11 -9 -11 -9 -1 0 8
-5 10 -12 5 -12 -7 -44 -12 -88 -14 -8 0 -22 -3 -30 -6 -8 -4 -44 -8 -79 -9
-35 -2 -70 -9 -77 -15 -11 -9 -14 -8 -14 1 0 9 -4 9 -17 -1 -19 -16 -23 -16
-34 3 -5 7 -9 8 -9 2 0 -7 -26 -11 -75 -10 -42 1 -77 -3 -79 -9 -3 -7 -5 -7
-5 0 -1 6 -31 9 -73 8 -48 -1 -75 2 -80 10 -6 9 -8 9 -8 0 0 -13 -34 -13 -46
0 -4 4 -13 2 -21 -4 -7 -6 -13 -7 -13 -2 0 11 -5 12 -85 13 -30 1 -55 5 -55 9
0 4 -9 7 -20 8 -13 1 -18 -2 -14 -9 5 -7 2 -8 -7 -2 -16 10 -31 13 -81 16 -21
2 -38 6 -38 10 0 4 -12 6 -27 6 -16 0 -40 5 -55 11 -19 7 -28 7 -28 0 0 -6 -7
-3 -16 6 -14 13 -19 14 -25 3 -7 -11 -9 -11 -9 0 0 7 -4 10 -10 7 -5 -3 -10
-1 -10 5 0 7 -8 9 -20 5 -11 -3 -20 -2 -20 3 0 5 -6 9 -12 9 -34 2 -83 15 -86
24 -2 5 -16 9 -31 9 -16 0 -41 10 -57 22 -15 13 -25 17 -20 10 10 -17 -9 -15
-24 2 -6 8 -17 13 -25 10 -7 -3 -16 -1 -20 5 -3 6 -15 11 -26 11 -10 0 -19 5
-19 11 0 5 -4 8 -9 4 -5 -3 -17 2 -25 11 -9 8 -16 12 -16 8 0 -3 -6 -1 -13 5
-8 6 -18 7 -22 3 -5 -4 -6 0 -3 9 5 12 1 15 -18 11 -13 -2 -24 0 -24 5 0 5
-16 15 -35 23 -19 8 -35 18 -35 22 0 5 -4 7 -9 3 -5 -3 -16 2 -24 10 -9 8 -20
15 -26 15 -6 0 -11 4 -11 10 0 5 -7 7 -15 4 -10 -4 -15 0 -15 11 0 9 -4 14 -9
10 -5 -3 -16 2 -24 10 -9 8 -20 15 -26 15 -6 0 -11 5 -11 10 0 6 -7 10 -15 10
-8 0 -15 5 -15 10 0 6 -7 10 -15 10 -7 0 -18 6 -22 13 -4 8 -22 22 -40 32 -18
10 -29 23 -26 28 3 6 2 7 -4 4 -6 -4 -21 5 -33 18 -13 14 -27 25 -31 25 -13 0
-57 48 -50 55 3 4 2 6 -4 5 -21 -5 -36 0 -30 10 3 6 1 10 -5 10 -9 0 -120 104
-120 113 0 2 -22 27 -50 56 -27 29 -50 59 -50 67 0 8 -4 13 -9 10 -4 -3 -2
-29 6 -58 27 -100 40 -158 35 -158 -2 0 1 -6 7 -13 6 -8 8 -17 4 -20 -3 -4 0
-13 7 -22 7 -8 9 -15 5 -15 -4 0 -2 -7 5 -15 7 -8 10 -15 7 -15 -3 0 5 -27 18
-60 13 -33 21 -60 18 -60 -3 0 0 -7 7 -15 7 -8 10 -22 6 -30 -3 -9 -2 -14 3
-11 5 3 16 -16 26 -42 10 -26 27 -65 38 -87 12 -22 20 -44 19 -49 -2 -4 2 -14
8 -21 5 -7 26 -43 46 -81 20 -38 43 -76 50 -85 8 -8 14 -23 14 -31 0 -9 3 -18
8 -20 9 -4 52 -65 52 -73 0 -4 15 -28 33 -53 44 -63 48 -69 80 -103 15 -16 27
-34 27 -40 0 -6 5 -7 10 -4 6 3 10 2 10 -3 0 -18 163 -170 194 -181 6 -2 17
-13 25 -23 7 -11 19 -17 26 -14 8 3 15 0 17 -6 4 -12 82 -58 151 -90 26 -12
47 -25 47 -30 0 -4 7 -5 15 -2 8 4 15 1 15 -5 0 -6 9 -11 19 -11 11 0 23 -5
26 -10 4 -6 10 -8 15 -5 5 3 14 0 22 -7 7 -7 22 -14 33 -16 11 -2 40 -10 65
-19 46 -15 81 -23 113 -26 9 -1 17 -5 17 -9 0 -4 3 -7 8 -6 4 1 41 -4 82 -12
244 -43 282 -46 493 -38 31 1 57 5 57 8 0 3 16 5 35 4 19 -1 37 2 40 7 3 4 16
4 29 -1 13 -5 27 -6 30 -3 3 4 37 8 74 11 37 2 72 8 79 13 7 6 13 6 17 1 3 -6
24 -6 53 -1 26 5 80 10 120 12 40 1 73 5 73 8 0 4 27 6 60 5 33 -1 60 1 60 4
0 3 17 5 38 6 47 1 94 11 152 30 25 9 53 16 63 17 9 1 17 5 17 9 0 4 3 7 8 7
4 -1 10 0 15 1 4 1 12 4 17 5 6 1 12 4 15 5 3 1 8 3 13 5 4 1 24 9 44 18 21
10 41 17 46 17 4 0 14 6 21 13 6 6 15 12 19 12 16 1 102 49 102 57 0 5 4 7 8
4 5 -3 20 6 35 20 14 13 31 24 37 24 5 0 10 5 10 10 0 6 6 10 14 10 8 0 17 7
20 16 4 9 9 15 11 12 3 -3 26 15 51 39 25 23 50 43 55 43 5 0 9 6 9 13 0 7 9
19 20 27 11 8 20 18 20 21 0 4 15 23 33 43 47 51 56 63 69 91 6 14 15 25 20
25 5 0 6 5 3 10 -3 6 -2 10 2 10 16 0 136 234 126 244 -4 3 -1 6 5 6 7 0 11 3
10 8 -3 11 24 95 35 109 5 7 6 17 2 23 -3 5 -2 10 3 10 5 0 9 6 10 13 0 6 3
22 6 35 3 12 8 30 10 40 2 10 11 42 20 71 9 30 13 57 10 62 -3 5 -1 9 3 9 8 0
13 19 16 63 1 9 4 17 7 17 3 0 6 12 7 28 2 44 14 106 23 116 4 4 4 21 0 36 -5
18 -4 30 1 32 13 4 32 232 30 368 0 68 -8 215 -10 215 -1 0 -4 29 -6 64 -2 35
-8 68 -13 73 -7 7 -7 19 -2 34 5 13 6 24 1 24 -8 0 -26 71 -24 98 0 6 -3 12
-8 12 -5 0 -6 6 -3 14 3 8 1 17 -5 21 -6 3 -11 15 -11 25 0 11 -11 40 -25 65
-14 25 -23 45 -20 45 4 0 -3 13 -14 29 -12 16 -21 34 -21 40 0 6 -4 11 -10 11
-5 0 -10 7 -10 15 0 8 -5 15 -12 15 -6 0 -9 3 -6 6 4 3 -1 14 -10 23 -101 108
-155 160 -161 157 -4 -3 -15 6 -25 20 -11 13 -25 24 -32 24 -8 0 -14 5 -14 11
0 5 -4 7 -10 4 -5 -3 -10 -2 -10 3 0 4 -21 19 -47 32 -27 13 -51 28 -55 34 -4
6 -8 8 -8 3 0 -4 -27 6 -60 23 -33 16 -68 32 -77 33 -10 2 -31 10 -48 17 -16
7 -34 14 -40 16 -5 1 -29 9 -52 17 -22 9 -44 13 -47 10 -3 -4 -6 -1 -6 6 0 7
-6 11 -14 8 -8 -3 -17 -3 -20 1 -4 3 -14 7 -24 8 -18 2 -25 4 -117 27 -33 8
-79 18 -103 22 -28 5 -40 11 -35 18 5 9 3 9 -8 1 -8 -6 -23 -10 -34 -7 -11 2
-36 5 -55 7 -19 2 -35 5 -35 6 0 1 -13 3 -30 4 -16 2 -40 6 -52 9 -13 3 -23 2
-23 -3 0 -5 -14 -5 -32 0 -29 8 -193 23 -225 21 -23 -2 -36 -1 -214 5 -114 4
-183 3 -195 -4 -10 -6 -27 -7 -40 -2 -12 5 -24 7 -26 4z"/>
<path d="M15030 12146 c-6 -6 -10 -7 -10 -3 0 4 -16 0 -36 -8 -20 -8 -40 -13
-44 -10 -5 3 -13 -3 -19 -12 -6 -10 -11 -14 -11 -9 0 5 -9 1 -19 -8 -19 -17
-17 -20 65 -103 78 -77 88 -84 115 -78 l30 7 -3 116 -3 115 -28 1 c-15 1 -32
-3 -37 -8z"/>
<path d="M15176 12153 c-12 -13 -7 -231 7 -240 26 -16 39 -8 119 73 95 97 97
100 81 90 -8 -4 -13 -1 -13 9 0 9 -4 13 -10 10 -5 -3 -10 -1 -10 5 0 6 -4 8
-10 5 -5 -3 -10 -1 -10 5 0 6 -4 9 -9 5 -5 -3 -12 -1 -16 5 -3 5 -15 10 -26
10 -10 0 -19 4 -19 8 0 5 -10 8 -22 7 -13 -1 -30 1 -39 6 -9 5 -19 5 -23 2z"/>
<path d="M14793 12016 c-13 -12 -23 -27 -23 -34 0 -7 -4 -12 -10 -12 -12 0
-70 -122 -70 -147 0 -17 10 -18 128 -17 152 2 142 1 142 19 0 7 8 18 17 23 14
8 7 19 -48 73 -35 35 -63 67 -61 72 1 4 -2 7 -8 7 -5 0 -17 8 -27 19 -18 18
-19 18 -40 -3z"/>
<path d="M15357 11942 c-75 -75 -85 -95 -63 -130 2 -4 62 -7 133 -7 122 0 128
1 125 20 -2 11 -6 27 -9 35 -4 8 -7 17 -8 20 -8 31 -18 50 -26 50 -5 0 -9 9
-9 19 0 10 -7 21 -15 25 -8 3 -15 12 -15 20 0 11 -19 26 -34 26 -1 0 -36 -35
-79 -78z"/>
<path d="M14689 11725 c-6 -42 -4 -73 3 -87 6 -13 5 -18 -4 -18 -9 0 -9 -3 2
-10 8 -5 12 -10 7 -10 -4 0 -1 -13 8 -30 9 -16 12 -30 8 -30 -5 0 -3 -4 3 -8
6 -4 19 -22 28 -40 10 -18 21 -32 26 -30 9 3 176 163 184 177 3 4 -1 27 -8 52
l-13 44 -122 0 c-76 1 -121 -3 -122 -10z"/>
<path d="M15307 11728 c-6 -4 -8 -10 -5 -13 4 -4 3 -18 -2 -31 -9 -22 -1 -34
85 -120 103 -102 104 -103 134 -39 8 17 15 33 17 38 1 4 3 9 4 12 1 3 4 10 5
15 1 6 3 11 5 13 9 12 19 126 11 128 -23 5 -245 3 -254 -3z"/>
<path d="M15224 11585 c-12 -8 -24 -11 -28 -8 -3 3 -6 1 -6 -6 0 -7 -4 -9 -10
-6 -6 4 -10 -43 -10 -133 0 -115 3 -141 15 -146 8 -3 15 -1 15 4 0 5 9 7 20 5
11 -2 20 1 20 6 0 6 4 8 8 5 4 -2 26 4 49 14 23 10 44 16 47 12 3 -3 6 0 6 7
0 7 5 9 10 6 6 -4 9 -1 8 5 -2 7 6 17 17 23 27 17 45 34 45 44 0 5 -20 27 -44
48 -25 21 -43 42 -40 47 3 4 0 8 -5 8 -6 0 -28 18 -50 40 -21 22 -40 40 -43
40 -2 0 -13 -7 -24 -15z"/>
<path d="M14912 11497 c-50 -51 -92 -96 -92 -100 0 -4 7 -7 15 -7 8 0 15 -4
15 -9 0 -11 79 -58 88 -53 2 2 8 0 11 -5 13 -19 58 -32 70 -20 8 8 11 8 11 -1
0 -7 14 -12 35 -12 l35 0 0 135 0 134 -32 9 c-18 6 -40 13 -48 16 -10 4 -45
-24 -108 -87z"/>
<path d="M8086 13382 c-2 -4 -56 -6 -120 -5 -64 1 -114 -1 -112 -5 2 -4 -16
-5 -40 -3 -25 1 -50 -2 -57 -8 -10 -8 -17 -7 -27 2 -10 10 -12 8 -6 -7 5 -15
4 -17 -7 -7 -16 12 -87 11 -87 -2 0 -5 -5 -5 -10 -2 -6 4 -18 1 -26 -6 -10 -8
-18 -9 -22 -3 -10 14 -37 10 -34 -4 2 -9 -3 -10 -15 -4 -29 15 -100 1 -95 -19
3 -10 0 -10 -12 1 -13 10 -16 10 -16 -1 0 -9 -3 -10 -8 -4 -10 15 -38 11 -34
-5 3 -11 0 -11 -12 -1 -9 8 -16 8 -20 2 -4 -6 -14 -7 -23 -4 -9 4 -14 2 -11
-3 4 -5 -8 -9 -25 -9 -18 1 -35 -3 -38 -8 -3 -5 -21 -10 -40 -12 -19 -2 -36
-4 -39 -5 -3 -1 -8 -2 -12 -1 -5 0 -8 -7 -9 -17 0 -9 -3 -12 -5 -5 -3 7 -12 9
-20 6 -7 -3 -12 -8 -9 -12 2 -4 -9 -5 -26 -3 -18 3 -29 0 -29 -7 0 -7 -4 -9
-10 -6 -5 3 -10 2 -10 -4 0 -5 -9 -8 -20 -6 -11 2 -22 -1 -25 -6 -4 -5 -12 -6
-18 -2 -8 5 -8 2 1 -9 10 -13 9 -15 -10 -13 -13 1 -34 -2 -48 -7 -20 -7 -22
-11 -10 -18 12 -8 10 -10 -8 -10 -15 0 -21 4 -17 13 4 6 -2 2 -13 -10 -14 -16
-22 -19 -31 -10 -8 8 -11 8 -12 -1 -3 -27 -4 -31 -13 -39 -5 -5 -6 -3 -2 5 4
6 3 12 -1 12 -5 0 -15 -6 -22 -12 -11 -11 -12 -10 -6 1 5 9 4 12 -3 7 -7 -4
-12 -14 -12 -22 0 -17 -16 -19 -23 -1 -3 7 -6 6 -6 -5 -1 -9 -6 -20 -13 -24
-7 -4 -8 -3 -4 4 5 8 2 10 -8 6 -9 -3 -14 -10 -11 -14 3 -5 1 -11 -5 -15 -5
-3 -10 0 -10 7 0 8 -5 6 -11 -5 -5 -9 -7 -23 -3 -30 5 -8 2 -7 -9 2 -15 12
-17 11 -17 -3 0 -10 -4 -15 -9 -12 -4 3 -23 -6 -41 -19 -19 -14 -29 -25 -23
-25 6 0 16 7 23 15 7 8 17 15 23 15 10 0 -22 -26 -58 -46 -11 -7 -19 -19 -19
-27 1 -9 -4 -13 -11 -11 -7 3 -16 0 -21 -7 -5 -8 -3 -10 7 -5 8 4 6 1 -5 -8
-10 -8 -15 -19 -12 -24 3 -5 -2 -9 -12 -8 -10 0 -17 -6 -17 -17 0 -10 -10 -26
-23 -36 -13 -9 -24 -27 -25 -39 -1 -12 -7 -22 -14 -22 -7 0 -10 -7 -7 -15 4
-8 -1 -17 -10 -21 -9 -3 -16 -10 -16 -16 0 -5 6 -6 13 -3 6 4 4 0 -5 -8 -10
-8 -15 -17 -11 -20 3 -4 1 -12 -4 -19 -6 -7 -13 -26 -17 -41 -4 -18 -11 -25
-19 -20 -8 4 -7 1 2 -10 12 -15 9 -21 -11 -18 -4 0 -3 -11 2 -25 7 -18 7 -23
-1 -18 -9 5 -10 -1 -5 -20 5 -20 4 -26 -5 -20 -8 5 -10 -1 -7 -20 3 -14 2 -26
-1 -26 -7 0 -8 -9 -14 -77 -1 -18 -6 -33 -12 -33 -5 0 -3 -5 5 -10 9 -6 10
-10 3 -10 -7 0 -10 -10 -7 -26 3 -14 -1 -33 -8 -42 -10 -12 -10 -16 0 -19 6
-3 10 -9 7 -14 -4 -5 -8 -61 -11 -125 -4 -91 -3 -119 8 -125 7 -5 8 -9 2 -9
-7 0 -9 -15 -4 -45 4 -24 3 -50 -1 -57 -4 -6 -5 -17 -1 -23 4 -5 8 -28 9 -50
1 -22 5 -56 8 -75 3 -19 8 -46 10 -60 2 -14 6 -41 10 -60 6 -33 13 -70 19
-115 2 -11 4 -20 5 -20 5 0 12 -41 14 -77 1 -21 5 -38 8 -38 6 0 32 -81 34
-105 0 -5 4 -16 8 -22 5 -7 6 -13 2 -13 -3 0 1 -16 9 -35 9 -20 15 -39 16 -43
1 -13 22 -77 36 -109 8 -17 14 -38 14 -46 0 -8 6 -20 13 -26 8 -6 20 -29 27
-51 7 -22 16 -40 21 -40 4 0 10 -12 13 -26 4 -15 12 -32 19 -40 30 -33 35 -42
30 -48 -4 -3 -1 -6 5 -6 7 0 12 -7 12 -15 0 -8 5 -15 10 -15 6 0 10 -5 10 -10
0 -6 11 -23 25 -38 14 -15 25 -30 25 -33 0 -17 185 -193 239 -229 13 -8 29
-20 35 -26 6 -5 31 -21 56 -35 25 -13 47 -26 50 -29 12 -12 51 -30 65 -30 8 0
15 -4 15 -9 0 -5 14 -12 30 -16 17 -4 30 -11 30 -17 0 -6 3 -8 7 -5 3 4 12 2
18 -3 7 -6 24 -11 39 -12 14 -1 26 -6 26 -10 0 -4 9 -8 20 -8 11 0 28 -4 38
-9 26 -14 140 -43 191 -48 25 -2 71 -6 101 -8 30 -3 75 -7 100 -9 25 -2 65 -5
90 -6 25 -2 48 -5 52 -7 4 -2 47 -6 95 -9 47 -2 92 -9 99 -15 7 -5 15 -6 18
-1 5 8 22 8 101 -3 171 -23 443 -21 469 5 4 4 21 4 37 0 16 -5 27 -5 24 0 -4
7 35 16 112 25 12 2 27 6 32 10 6 3 23 8 38 10 36 6 54 10 75 19 9 4 22 5 28
1 5 -3 10 -2 10 3 0 9 86 37 103 34 4 -1 7 3 7 8 0 6 3 9 8 8 13 -2 175 73
237 111 17 10 34 16 39 13 5 -3 6 0 2 6 -3 6 3 13 14 17 22 7 115 78 141 107
9 10 19 18 23 18 4 0 29 23 56 50 27 28 47 50 44 50 -3 0 5 10 18 23 13 12 43
47 66 77 23 30 46 60 52 67 5 7 10 17 10 23 0 5 5 10 10 10 6 0 9 3 8 8 -3 8
32 64 47 74 5 4 6 8 2 8 -4 0 6 20 22 44 17 24 28 46 25 48 -2 3 2 11 11 18 8
7 15 19 15 26 0 8 5 14 10 14 6 0 10 5 10 10 0 6 14 41 31 78 17 36 32 72 33
78 1 7 7 18 13 25 9 12 21 42 28 69 12 45 19 60 28 60 6 0 8 3 5 6 -4 3 4 36
18 74 13 37 26 81 29 98 3 17 10 44 16 59 6 15 12 37 13 48 4 30 27 138 34
155 5 16 11 69 15 133 1 20 4 37 7 37 3 0 7 32 8 71 2 39 7 81 12 93 4 13 4
29 -2 39 -5 9 -7 21 -4 25 20 32 12 292 -11 352 -6 14 -11 37 -17 67 -1 7 -5
16 -9 19 -4 4 -7 15 -7 25 0 9 -5 19 -11 21 -5 2 -11 10 -12 18 -4 25 -77 133
-117 172 -21 20 -35 40 -32 43 3 3 -2 5 -10 5 -9 0 -18 7 -22 15 -3 8 -10 15
-15 15 -6 0 -21 10 -35 23 -13 12 -37 29 -53 37 -15 8 -30 18 -33 21 -7 10
-67 44 -140 81 -36 18 -66 36 -68 41 -2 4 -11 7 -20 7 -9 0 -26 7 -36 15 -10
8 -23 12 -27 9 -5 -3 -9 0 -9 5 0 6 -7 11 -15 11 -9 0 -33 9 -54 20 -21 10
-41 16 -45 13 -3 -4 -6 -1 -6 5 0 7 -3 11 -7 11 -15 -3 -73 14 -73 21 0 3 -7
7 -15 7 -22 0 -159 46 -166 56 -3 5 -12 9 -20 10 -8 2 -20 6 -26 10 -7 5 -13
6 -13 3 0 -2 -15 0 -32 5 -18 5 -49 12 -68 15 -19 3 -37 8 -39 10 -2 2 -11 -2
-19 -9 -13 -9 -14 -9 -8 1 7 12 4 13 -34 16 -12 0 -25 8 -30 16 -7 10 -10 11
-10 3 0 -7 -9 -13 -20 -13 -11 0 -20 6 -20 13 0 9 -3 8 -9 -2 -7 -11 -9 -11
-13 0 -4 12 -7 12 -21 0 -10 -7 -17 -9 -17 -3 0 14 -48 21 -54 8 -3 -7 -5 -7
-5 2 -1 14 -33 16 -47 3 -5 -6 -34 -6 -74 0 -86 12 -83 12 -95 9 -5 -1 -34 -2
-64 -1 -42 1 -52 4 -48 16 5 11 1 12 -16 6 -12 -5 -31 -5 -42 0 -24 9 -273 10
-279 1z"/>
<path d="M6425 12810 c-3 -6 1 -7 9 -4 18 7 21 14 7 14 -6 0 -13 -4 -16 -10z"/>
<path d="M8290 8826 c-3 -3 -18 -7 -33 -10 -66 -12 -161 -88 -192 -153 -22
-46 -27 -69 -31 -133 -4 -58 -2 -66 36 -143 77 -159 284 -210 475 -117 32 16
45 28 46 43 1 42 1 152 0 190 l-1 37 -60 -1 c-33 -1 -61 -4 -61 -8 -1 -3 -3
-40 -4 -81 -2 -41 -3 -78 -4 -81 -2 -12 -77 -26 -117 -22 -69 7 -120 39 -145
90 -38 79 -25 168 34 224 30 28 62 40 121 44 53 3 84 -6 132 -41 l30 -22 42
40 c23 22 42 41 42 42 0 21 -102 86 -135 86 -8 0 -15 4 -15 8 0 9 -152 16
-160 8z"/>
<path d="M8728 8821 c-12 -5 -14 -56 -13 -296 l0 -290 285 -3 286 -2 24 64
c27 73 31 75 133 66 32 -3 60 -3 62 0 2 3 24 4 50 2 43 -4 48 -7 62 -41 40
-99 30 -91 110 -91 70 0 83 5 65 26 -5 5 -19 34 -32 64 -12 30 -33 78 -45 105
-13 28 -32 70 -42 95 -69 157 -128 286 -134 295 -4 6 -34 9 -66 8 -84 -2 -87
-2 -80 -10 4 -3 1 -16 -6 -27 -7 -12 -21 -39 -29 -61 -9 -22 -32 -76 -52 -120
-20 -44 -41 -89 -46 -100 -13 -29 -49 -111 -81 -185 -26 -61 -34 -61 -29 -2 1
12 -4 22 -12 23 -7 0 -69 2 -138 3 -69 2 -130 3 -135 4 -7 1 -10 83 -10 237 1
230 0 235 -20 236 -11 0 -36 2 -56 3 -20 1 -43 0 -51 -3z m752 -162 c0 -11 53
-140 70 -171 8 -15 6 -18 -12 -19 -43 -2 -150 0 -153 3 -5 6 80 198 88 198 4
0 7 -5 7 -11z"/>
<path d="M9819 8798 c-2 -36 -2 -65 0 -78 1 -6 58 -10 151 -10 83 0 150 -2
150 -5 0 -2 -70 -91 -155 -196 -147 -182 -155 -194 -155 -235 l0 -44 258 0
259 0 -1 55 c0 30 -5 55 -11 56 -5 0 -79 1 -162 1 -109 1 -150 4 -145 12 18
23 87 111 92 116 3 3 51 62 107 131 91 112 102 131 106 172 3 38 1 47 -12 48
-9 0 -121 1 -249 2 l-232 2 -1 -27z"/>
<path d="M10430 8822 c-25 -4 -54 -22 -34 -22 8 0 9 -37 2 -132 -2 -21 -1 -38
2 -38 3 0 5 -29 5 -65 0 -36 -4 -65 -8 -65 -5 0 -5 -5 -1 -11 9 -15 9 -182 0
-197 -3 -6 -2 -13 3 -16 5 -3 7 -15 4 -26 -5 -20 0 -20 226 -20 l231 0 0 55
c0 48 -3 55 -20 56 -11 0 -83 1 -160 2 l-141 1 3 65 3 66 127 0 c69 0 129 2
131 5 7 7 10 29 8 73 l-1 38 -92 -1 c-51 -1 -112 -1 -135 -1 l-43 1 0 60 0 60
155 0 155 0 0 55 c0 45 -3 55 -17 56 -60 3 -382 3 -403 1z"/>
<path d="M11390 8818 c0 -4 -7 -8 -15 -8 -41 0 -131 -66 -167 -121 -28 -44
-47 -124 -43 -187 12 -199 214 -325 420 -261 98 30 183 118 201 209 41 217
-104 385 -326 379 -39 -1 -70 -6 -70 -11z m185 -115 c50 -26 73 -51 91 -100
51 -144 -41 -276 -192 -275 -116 0 -198 86 -195 205 3 147 162 239 296 170z"/>
<path d="M11917 8822 c-21 -4 -22 -23 -19 -329 l3 -263 54 0 55 0 0 83 0 83
93 2 c199 4 287 72 287 220 0 102 -74 181 -185 199 -35 6 -264 9 -288 5z m305
-113 c64 -33 77 -134 22 -181 -30 -27 -39 -29 -146 -35 l-88 -5 0 120 0 120
87 0 c66 0 97 -5 125 -19z"/>
<path d="M12402 8822 c-4 -1 -6 -22 -4 -47 l4 -45 52 -1 c28 0 70 0 94 1 l42
2 0 -252 0 -251 58 3 57 3 1 240 c1 132 2 243 3 247 0 4 27 7 59 7 140 -1 129
-5 130 46 1 29 -3 45 -11 46 -34 2 -478 4 -485 1z"/>
<path d="M12979 8815 c0 -18 -1 -539 0 -562 1 -21 6 -23 54 -23 l54 0 0 295
c1 214 -2 295 -11 296 -53 5 -96 2 -97 -6z"/>
<path d="M13449 8826 c-2 -3 -16 -7 -29 -9 -44 -9 -119 -58 -154 -100 -140
-173 -46 -442 169 -486 100 -20 212 5 280 62 34 29 30 45 -19 81 -26 20 -28
20 -40 4 -34 -46 -155 -65 -226 -34 -126 53 -159 224 -61 320 80 78 188 83
286 11 18 -13 23 -11 53 14 17 16 32 34 32 40 0 18 -80 70 -133 86 -47 14
-148 21 -158 11z"/>
<path d="M13995 8795 c-7 -16 -24 -55 -38 -85 -14 -30 -52 -116 -85 -190 -33
-74 -74 -165 -91 -203 -17 -37 -31 -72 -31 -77 0 -6 24 -10 54 -10 54 0 54 0
74 43 10 23 23 52 26 65 4 12 10 23 14 23 4 1 69 3 146 4 l139 1 30 -68 30
-68 58 0 c57 0 58 1 50 23 -15 38 -176 396 -230 511 l-27 60 -53 0 c-49 1 -54
-1 -66 -29z m120 -216 c26 -60 45 -113 42 -115 -6 -7 -187 -8 -193 -1 -6 5 89
227 97 227 3 0 28 -50 54 -111z"/>
<path d="M14446 8820 c-2 -5 0 -553 3 -577 1 -10 49 -13 206 -13 113 0 205 3
206 8 0 4 2 17 3 28 1 12 -1 30 -5 40 -6 18 -18 19 -152 18 -98 -1 -147 3
-149 10 -2 6 -4 118 -3 249 0 154 -3 237 -10 238 -50 4 -97 3 -99 -1z"/>
<path d="M15056 8821 c-3 -4 -20 -11 -37 -15 -41 -8 -94 -62 -107 -109 -22
-79 12 -150 87 -184 42 -19 91 -35 116 -37 20 -2 91 -30 113 -44 12 -8 22 -24
22 -37 0 -84 -150 -104 -279 -36 l-42 21 -19 -42 c-10 -23 -16 -46 -14 -50 8
-13 90 -47 131 -55 59 -11 164 -8 207 6 77 26 132 98 129 171 -1 37 -34 90
-70 113 -32 20 -138 57 -138 48 0 -1 -13 3 -30 9 -16 7 -38 13 -49 16 -59 12
-73 81 -23 118 38 28 133 26 201 -3 27 -12 50 -20 50 -19 12 20 26 63 26 77 0
27 -112 61 -200 61 -38 0 -71 -4 -74 -9z"/>
</g>
</svg>
